<svg xmlns="http://www.w3.org/2000/svg" xmlns:xlink="http://www.w3.org/1999/xlink" width="173" zoomAndPan="magnify" viewBox="0 0 129.75 30.000001" height="40" preserveAspectRatio="xMidYMid meet" version="1.0"><defs><g/><clipPath id="69a5d88d58"><path d="M 6.328125 3.457031 L 28.996094 3.457031 L 28.996094 26.214844 L 6.328125 26.214844 Z M 6.328125 3.457031 " clip-rule="nonzero"/></clipPath><clipPath id="f3e997f758"><path d="M 12.132812 3.457031 L 23.191406 3.457031 C 26.398438 3.457031 28.996094 6.058594 28.996094 9.265625 L 28.996094 20.324219 C 28.996094 23.53125 26.398438 26.128906 23.191406 26.128906 L 12.132812 26.128906 C 8.925781 26.128906 6.328125 23.53125 6.328125 20.324219 L 6.328125 9.265625 C 6.328125 6.058594 8.925781 3.457031 12.132812 3.457031 Z M 12.132812 3.457031 " clip-rule="nonzero"/></clipPath><clipPath id="ce9501e84a"><path d="M 8.378906 5.605469 L 27 5.605469 L 27 18 L 8.378906 18 Z M 8.378906 5.605469 " clip-rule="nonzero"/></clipPath><clipPath id="04b6296c62"><path d="M 14 11 L 27 11 L 27 24.476562 L 14 24.476562 Z M 14 11 " clip-rule="nonzero"/></clipPath></defs><g fill="#ffffff" fill-opacity="1"><g transform="translate(34.385791, 19.789024)"><g><path d="M 1.109375 0 L 1.109375 -11.5 L 3.21875 -11.5 L 3.21875 -6.71875 L 8.375 -6.71875 L 8.375 -11.5 L 10.484375 -11.5 L 10.484375 0 L 8.375 0 L 8.375 -5.015625 L 3.21875 -5.015625 L 3.21875 0 Z M 1.109375 0 "/></g></g></g><g fill="#ffffff" fill-opacity="1"><g transform="translate(45.846131, 19.789024)"><g><path d="M 5.03125 0.203125 C 4.207031 0.203125 3.476562 0.0234375 2.84375 -0.328125 C 2.207031 -0.679688 1.707031 -1.175781 1.34375 -1.8125 C 0.976562 -2.445312 0.796875 -3.175781 0.796875 -4 C 0.796875 -4.84375 0.972656 -5.59375 1.328125 -6.25 C 1.691406 -6.90625 2.1875 -7.414062 2.8125 -7.78125 C 3.445312 -8.15625 4.191406 -8.34375 5.046875 -8.34375 C 5.835938 -8.34375 6.539062 -8.164062 7.15625 -7.8125 C 7.769531 -7.46875 8.25 -6.988281 8.59375 -6.375 C 8.9375 -5.769531 9.109375 -5.097656 9.109375 -4.359375 C 9.109375 -4.234375 9.101562 -4.101562 9.09375 -3.96875 C 9.09375 -3.84375 9.085938 -3.707031 9.078125 -3.5625 L 2.890625 -3.5625 C 2.929688 -2.925781 3.148438 -2.425781 3.546875 -2.0625 C 3.953125 -1.707031 4.441406 -1.53125 5.015625 -1.53125 C 5.441406 -1.53125 5.796875 -1.625 6.078125 -1.8125 C 6.367188 -2.007812 6.585938 -2.257812 6.734375 -2.5625 L 8.875 -2.5625 C 8.71875 -2.050781 8.460938 -1.582031 8.109375 -1.15625 C 7.753906 -0.738281 7.316406 -0.40625 6.796875 -0.15625 C 6.273438 0.0820312 5.6875 0.203125 5.03125 0.203125 Z M 5.046875 -6.640625 C 4.523438 -6.640625 4.066406 -6.492188 3.671875 -6.203125 C 3.285156 -5.910156 3.035156 -5.46875 2.921875 -4.875 L 6.984375 -4.875 C 6.953125 -5.414062 6.753906 -5.84375 6.390625 -6.15625 C 6.023438 -6.476562 5.578125 -6.640625 5.046875 -6.640625 Z M 5.046875 -6.640625 "/></g></g></g><g fill="#ffffff" fill-opacity="1"><g transform="translate(55.533224, 19.789024)"><g><path d="M 3.875 0.203125 C 3.175781 0.203125 2.601562 0.09375 2.15625 -0.125 C 1.707031 -0.351562 1.375 -0.65625 1.15625 -1.03125 C 0.9375 -1.40625 0.828125 -1.816406 0.828125 -2.265625 C 0.828125 -3.023438 1.117188 -3.640625 1.703125 -4.109375 C 2.296875 -4.578125 3.1875 -4.8125 4.375 -4.8125 L 6.4375 -4.8125 L 6.4375 -5.015625 C 6.4375 -5.566406 6.273438 -5.972656 5.953125 -6.234375 C 5.640625 -6.503906 5.25 -6.640625 4.78125 -6.640625 C 4.351562 -6.640625 3.976562 -6.535156 3.65625 -6.328125 C 3.34375 -6.128906 3.148438 -5.832031 3.078125 -5.4375 L 1.015625 -5.4375 C 1.066406 -6.03125 1.265625 -6.546875 1.609375 -6.984375 C 1.960938 -7.421875 2.410156 -7.753906 2.953125 -7.984375 C 3.503906 -8.222656 4.117188 -8.34375 4.796875 -8.34375 C 5.953125 -8.34375 6.863281 -8.050781 7.53125 -7.46875 C 8.207031 -6.882812 8.546875 -6.066406 8.546875 -5.015625 L 8.546875 0 L 6.75 0 L 6.546875 -1.3125 C 6.304688 -0.875 5.96875 -0.507812 5.53125 -0.21875 C 5.101562 0.0625 4.550781 0.203125 3.875 0.203125 Z M 4.359375 -1.4375 C 4.953125 -1.4375 5.414062 -1.632812 5.75 -2.03125 C 6.082031 -2.425781 6.296875 -2.914062 6.390625 -3.5 L 4.59375 -3.5 C 4.039062 -3.5 3.640625 -3.394531 3.390625 -3.1875 C 3.148438 -2.988281 3.03125 -2.742188 3.03125 -2.453125 C 3.03125 -2.128906 3.148438 -1.878906 3.390625 -1.703125 C 3.640625 -1.523438 3.960938 -1.4375 4.359375 -1.4375 Z M 4.359375 -1.4375 "/></g></g></g><g fill="#ffffff" fill-opacity="1"><g transform="translate(64.875509, 19.789024)"><g><path d="M 1.0625 0 L 1.0625 -11.828125 L 3.171875 -11.828125 L 3.171875 0 Z M 1.0625 0 "/></g></g></g><g fill="#ffffff" fill-opacity="1"><g transform="translate(68.996554, 19.789024)"><g><path d="M 4.703125 0 C 3.847656 0 3.160156 -0.207031 2.640625 -0.625 C 2.128906 -1.039062 1.875 -1.78125 1.875 -2.84375 L 1.875 -6.390625 L 0.46875 -6.390625 L 0.46875 -8.140625 L 1.875 -8.140625 L 2.125 -10.328125 L 3.96875 -10.328125 L 3.96875 -8.140625 L 6.171875 -8.140625 L 6.171875 -6.390625 L 3.96875 -6.390625 L 3.96875 -2.828125 C 3.96875 -2.429688 4.050781 -2.160156 4.21875 -2.015625 C 4.394531 -1.867188 4.691406 -1.796875 5.109375 -1.796875 L 6.125 -1.796875 L 6.125 0 Z M 4.703125 0 "/></g></g></g><g fill="#ffffff" fill-opacity="1"><g transform="translate(75.777482, 19.789024)"><g><path d="M 1.0625 0 L 1.0625 -11.828125 L 3.171875 -11.828125 L 3.171875 -6.890625 C 3.441406 -7.347656 3.804688 -7.703125 4.265625 -7.953125 C 4.734375 -8.210938 5.269531 -8.34375 5.875 -8.34375 C 6.882812 -8.34375 7.664062 -8.023438 8.21875 -7.390625 C 8.769531 -6.753906 9.046875 -5.820312 9.046875 -4.59375 L 9.046875 0 L 6.96875 0 L 6.96875 -4.40625 C 6.96875 -5.101562 6.828125 -5.632812 6.546875 -6 C 6.265625 -6.375 5.820312 -6.5625 5.21875 -6.5625 C 4.625 -6.5625 4.132812 -6.351562 3.75 -5.9375 C 3.363281 -5.53125 3.171875 -4.953125 3.171875 -4.203125 L 3.171875 0 Z M 1.0625 0 "/></g></g></g><g fill="#ffffff" fill-opacity="1"><g transform="translate(85.628768, 19.789024)"><g><path d="M 6.328125 0.203125 C 5.160156 0.203125 4.160156 -0.046875 3.328125 -0.546875 C 2.492188 -1.046875 1.851562 -1.738281 1.40625 -2.625 C 0.957031 -3.519531 0.734375 -4.554688 0.734375 -5.734375 C 0.734375 -6.898438 0.957031 -7.929688 1.40625 -8.828125 C 1.851562 -9.734375 2.492188 -10.4375 3.328125 -10.9375 C 4.160156 -11.4375 5.160156 -11.6875 6.328125 -11.6875 C 7.703125 -11.6875 8.828125 -11.34375 9.703125 -10.65625 C 10.585938 -9.976562 11.140625 -9.019531 11.359375 -7.78125 L 9.046875 -7.78125 C 8.898438 -8.40625 8.59375 -8.894531 8.125 -9.25 C 7.664062 -9.601562 7.054688 -9.78125 6.296875 -9.78125 C 5.234375 -9.78125 4.398438 -9.421875 3.796875 -8.703125 C 3.191406 -7.984375 2.890625 -6.992188 2.890625 -5.734375 C 2.890625 -4.472656 3.191406 -3.484375 3.796875 -2.765625 C 4.398438 -2.046875 5.234375 -1.6875 6.296875 -1.6875 C 7.054688 -1.6875 7.664062 -1.851562 8.125 -2.1875 C 8.59375 -2.519531 8.898438 -2.984375 9.046875 -3.578125 L 11.359375 -3.578125 C 11.140625 -2.398438 10.585938 -1.472656 9.703125 -0.796875 C 8.828125 -0.128906 7.703125 0.203125 6.328125 0.203125 Z M 6.328125 0.203125 "/></g></g></g><g fill="#ffffff" fill-opacity="1"><g transform="translate(97.598096, 19.789024)"><g><path d="M 3.875 0.203125 C 3.175781 0.203125 2.601562 0.09375 2.15625 -0.125 C 1.707031 -0.351562 1.375 -0.65625 1.15625 -1.03125 C 0.9375 -1.40625 0.828125 -1.816406 0.828125 -2.265625 C 0.828125 -3.023438 1.117188 -3.640625 1.703125 -4.109375 C 2.296875 -4.578125 3.1875 -4.8125 4.375 -4.8125 L 6.4375 -4.8125 L 6.4375 -5.015625 C 6.4375 -5.566406 6.273438 -5.972656 5.953125 -6.234375 C 5.640625 -6.503906 5.25 -6.640625 4.78125 -6.640625 C 4.351562 -6.640625 3.976562 -6.535156 3.65625 -6.328125 C 3.34375 -6.128906 3.148438 -5.832031 3.078125 -5.4375 L 1.015625 -5.4375 C 1.066406 -6.03125 1.265625 -6.546875 1.609375 -6.984375 C 1.960938 -7.421875 2.410156 -7.753906 2.953125 -7.984375 C 3.503906 -8.222656 4.117188 -8.34375 4.796875 -8.34375 C 5.953125 -8.34375 6.863281 -8.050781 7.53125 -7.46875 C 8.207031 -6.882812 8.546875 -6.066406 8.546875 -5.015625 L 8.546875 0 L 6.75 0 L 6.546875 -1.3125 C 6.304688 -0.875 5.96875 -0.507812 5.53125 -0.21875 C 5.101562 0.0625 4.550781 0.203125 3.875 0.203125 Z M 4.359375 -1.4375 C 4.953125 -1.4375 5.414062 -1.632812 5.75 -2.03125 C 6.082031 -2.425781 6.296875 -2.914062 6.390625 -3.5 L 4.59375 -3.5 C 4.039062 -3.5 3.640625 -3.394531 3.390625 -3.1875 C 3.148438 -2.988281 3.03125 -2.742188 3.03125 -2.453125 C 3.03125 -2.128906 3.148438 -1.878906 3.390625 -1.703125 C 3.640625 -1.523438 3.960938 -1.4375 4.359375 -1.4375 Z M 4.359375 -1.4375 "/></g></g></g><g fill="#ffffff" fill-opacity="1"><g transform="translate(106.94038, 19.789024)"><g><path d="M 1.0625 0 L 1.0625 -8.140625 L 2.9375 -8.140625 L 3.140625 -6.625 C 3.429688 -7.144531 3.832031 -7.5625 4.34375 -7.875 C 4.851562 -8.1875 5.453125 -8.34375 6.140625 -8.34375 L 6.140625 -6.125 L 5.546875 -6.125 C 5.085938 -6.125 4.675781 -6.050781 4.3125 -5.90625 C 3.957031 -5.769531 3.675781 -5.523438 3.46875 -5.171875 C 3.269531 -4.816406 3.171875 -4.332031 3.171875 -3.71875 L 3.171875 0 Z M 1.0625 0 "/></g></g></g><g fill="#ffffff" fill-opacity="1"><g transform="translate(113.310834, 19.789024)"><g><path d="M 5.03125 0.203125 C 4.207031 0.203125 3.476562 0.0234375 2.84375 -0.328125 C 2.207031 -0.679688 1.707031 -1.175781 1.34375 -1.8125 C 0.976562 -2.445312 0.796875 -3.175781 0.796875 -4 C 0.796875 -4.84375 0.972656 -5.59375 1.328125 -6.25 C 1.691406 -6.90625 2.1875 -7.414062 2.8125 -7.78125 C 3.445312 -8.15625 4.191406 -8.34375 5.046875 -8.34375 C 5.835938 -8.34375 6.539062 -8.164062 7.15625 -7.8125 C 7.769531 -7.46875 8.25 -6.988281 8.59375 -6.375 C 8.9375 -5.769531 9.109375 -5.097656 9.109375 -4.359375 C 9.109375 -4.234375 9.101562 -4.101562 9.09375 -3.96875 C 9.09375 -3.84375 9.085938 -3.707031 9.078125 -3.5625 L 2.890625 -3.5625 C 2.929688 -2.925781 3.148438 -2.425781 3.546875 -2.0625 C 3.953125 -1.707031 4.441406 -1.53125 5.015625 -1.53125 C 5.441406 -1.53125 5.796875 -1.625 6.078125 -1.8125 C 6.367188 -2.007812 6.585938 -2.257812 6.734375 -2.5625 L 8.875 -2.5625 C 8.71875 -2.050781 8.460938 -1.582031 8.109375 -1.15625 C 7.753906 -0.738281 7.316406 -0.40625 6.796875 -0.15625 C 6.273438 0.0820312 5.6875 0.203125 5.03125 0.203125 Z M 5.046875 -6.640625 C 4.523438 -6.640625 4.066406 -6.492188 3.671875 -6.203125 C 3.285156 -5.910156 3.035156 -5.46875 2.921875 -4.875 L 6.984375 -4.875 C 6.953125 -5.414062 6.753906 -5.84375 6.390625 -6.15625 C 6.023438 -6.476562 5.578125 -6.640625 5.046875 -6.640625 Z M 5.046875 -6.640625 "/></g></g></g><g clip-path="url(#69a5d88d58)"><g clip-path="url(#f3e997f758)"><path fill="#ffffff" d="M 6.328125 3.457031 L 28.996094 3.457031 L 28.996094 26.128906 L 6.328125 26.128906 Z M 6.328125 3.457031 " fill-opacity="1" fill-rule="nonzero"/></g></g><g clip-path="url(#ce9501e84a)"><path fill="#28d049" d="M 24.621094 5.605469 C 23.34375 5.605469 22.300781 6.644531 22.300781 7.925781 C 22.300781 9.207031 23.34375 10.246094 24.621094 10.246094 C 25.902344 10.246094 26.945312 9.207031 26.945312 7.925781 C 26.945312 6.644531 25.902344 5.605469 24.621094 5.605469 Z M 17.660156 5.605469 C 15.960938 5.605469 14.578125 6.980469 14.566406 8.679688 L 14.566406 11.792969 L 11.472656 11.792969 C 9.765625 11.792969 8.378906 13.179688 8.378906 14.886719 C 8.378906 16.597656 9.765625 17.984375 11.472656 17.984375 L 12.769531 17.984375 C 14.675781 17.984375 16.515625 17.289062 17.945312 16.027344 C 17.949219 16.023438 17.949219 16.023438 17.953125 16.019531 C 19.734375 14.445312 20.753906 12.183594 20.753906 9.804688 C 20.753906 9.207031 20.753906 8.699219 20.753906 8.699219 C 20.753906 6.992188 19.367188 5.605469 17.660156 5.605469 Z M 17.660156 5.605469 " fill-opacity="1" fill-rule="evenodd"/></g><g clip-path="url(#04b6296c62)"><path fill="#1582a5" d="M 14.566406 17.984375 C 14.4375 17.984375 14.566406 17.984375 14.566406 17.984375 L 14.566406 21.078125 C 14.566406 22.785156 15.953125 24.171875 17.660156 24.171875 C 19.367188 24.171875 20.753906 22.785156 20.753906 21.078125 L 20.753906 17.984375 L 23.847656 17.984375 C 25.558594 17.984375 26.945312 16.597656 26.945312 14.886719 C 26.945312 13.179688 25.558594 11.792969 23.847656 11.792969 L 23.535156 11.792969 C 22.160156 15.410156 18.664062 17.984375 14.566406 17.984375 Z M 14.566406 17.984375 " fill-opacity="1" fill-rule="evenodd"/></g></svg>